# xmcd
#
# Track frame offsets:
#	150
#	32485
#	63355
#	94753
#	127188
#	157438
#	200425
#	232511
#	266070
#
# Disc length: 3938
#
# Revision: 1
# Processed by: cddbd v1.5.1PL0 Copyright (c) Steve Scherf et al.
# Submitted via: Audion 3.0.2 (http://www.panic.com/audion/)
# Normalized: r0:TDELIM( - )
#
DISCID=790f6009
DTITLE=Tobi - House - Dance 077
DYEAR=1900
DGENRE=
TTITLE0=Benny B - Able To Love
TTITLE1=Kaskade - Meditation in The Groove
TTITLE2=LC Anderson vs. Psycho Radio - Right Stuff
TTITLE3=Lonyo - Summer of Love
TTITLE4=Milk and Sugar - Let The Sunshine
TTITLE5=Planet Funk - The Switch (PF Club Mix)
TTITLE6=Saffron Hill - My Love Is Always There
TTITLE7=Chic - Le Freak (Boogie Pimps n Freak Remix)
TTITLE8=Wackside feat. Chic - Le Freak (Wackside Extended)
EXTD=
EXTT0=
EXTT1=
EXTT2=
EXTT3=
EXTT4=
EXTT5=
EXTT6=
EXTT7=
EXTT8=
PLAYORDER=
